<svg viewBox="0 0 960 540" xmlns="http://www.w3.org/2000/svg">
  <defs>
    <linearGradient id="bg" x1="0%" y1="0%" x2="70%" y2="100%">
      <stop offset="0%" stop-color="#170f3d"/>
      <stop offset="45%" stop-color="#2c1a5e"/>
      <stop offset="70%" stop-color="#3f2478"/>
      <stop offset="100%" stop-color="#241548"/>
    </linearGradient>
    <radialGradient id="glow" cx="63%" cy="38%" r="55%">
      <stop offset="0%" stop-color="#6b4aa8" stop-opacity="0.55"/>
      <stop offset="55%" stop-color="#4a2c85" stop-opacity="0.25"/>
      <stop offset="100%" stop-color="#4a2c85" stop-opacity="0"/>
    </radialGradient>
    <clipPath id="canvasClip">
      <rect x="0" y="0" width="960" height="540"/>
    </clipPath>
  </defs>

  <rect x="0" y="0" width="960" height="540" fill="url(#bg)"/>
  <rect x="0" y="0" width="960" height="540" fill="url(#glow)"/>

  <g clip-path="url(#canvasClip)" display="none">
<polygon points="-115.1,520.3 -68.4,480.2 -47.0,519.9" fill="none" stroke="rgba(222,212,248,0.243)" stroke-width="1"/>
<polygon points="101.3,468.2 158.5,559.5 94.0,565.0" fill="none" stroke="rgba(222,212,248,0.118)" stroke-width="1"/>
<polygon points="101.3,468.2 24.9,482.4 120.5,414.7" fill="none" stroke="rgba(222,212,248,0.188)" stroke-width="1"/>
<polygon points="101.3,468.2 94.0,565.0 24.9,482.4" fill="none" stroke="rgba(222,212,248,0.254)" stroke-width="1"/>
<polygon points="158.5,559.5 101.3,468.2 202.3,453.4" fill="none" stroke="rgba(222,212,248,0.122)" stroke-width="1"/>
<polygon points="165.8,408.4 101.3,468.2 120.5,414.7" fill="none" stroke="rgba(222,212,248,0.212)" stroke-width="1"/>
<polygon points="101.3,468.2 165.8,408.4 202.3,453.4" fill="none" stroke="rgba(222,212,248,0.256)" stroke-width="1"/>
<polygon points="122.5,369.4 165.8,408.4 120.5,414.7" fill="none" stroke="rgba(222,212,248,0.259)" stroke-width="1"/>
<polygon points="167.9,214.6 122.5,369.4 -47.5,339.3" fill="none" stroke="rgba(222,212,248,0.156)" stroke-width="1"/>
<polygon points="-43.0,364.8 122.5,369.4 120.5,414.7" fill="none" stroke="rgba(222,212,248,0.200)" stroke-width="1"/>
<polygon points="122.5,369.4 -43.0,364.8 -47.5,339.3" fill="none" stroke="rgba(222,212,248,0.251)" stroke-width="1"/>
<polygon points="165.8,408.4 222.0,423.1 202.3,453.4" fill="none" stroke="rgba(222,212,248,0.200)" stroke-width="1"/>
<polygon points="208.8,552.1 208.8,584.4 180.9,555.5" fill="rgba(238,232,255,0.073)" stroke="rgba(222,212,248,0.325)" stroke-width="1"/>
<polygon points="285.8,484.7 216.0,535.2 202.3,453.4" fill="none" stroke="rgba(222,212,248,0.240)" stroke-width="1"/>
<polygon points="285.8,484.7 222.0,423.1 307.1,429.1" fill="none" stroke="rgba(222,212,248,0.212)" stroke-width="1"/>
<polygon points="222.0,423.1 285.8,484.7 202.3,453.4" fill="none" stroke="rgba(222,212,248,0.106)" stroke-width="1"/>
<polygon points="216.0,535.2 285.8,484.7 364.1,583.9" fill="rgba(238,232,255,0.079)" stroke="rgba(222,212,248,0.333)" stroke-width="1"/>
<polygon points="470.4,446.3 381.9,401.9 474.2,423.0" fill="rgba(238,232,255,0.230)" stroke="rgba(222,212,248,0.500)" stroke-width="1"/>
<polygon points="470.4,446.3 442.7,474.8 381.9,401.9" fill="rgba(238,232,255,0.214)" stroke="rgba(222,212,248,0.482)" stroke-width="1"/>
<polygon points="442.7,474.8 470.4,446.3 471.2,504.6" fill="rgba(238,232,255,0.207)" stroke="rgba(222,212,248,0.475)" stroke-width="1"/>
<polygon points="600.6,247.1 605.0,225.0 621.9,229.7" fill="rgba(238,232,255,0.432)" stroke="rgba(222,212,248,0.725)" stroke-width="1"/>
<polygon points="600.6,247.1 637.1,281.5 590.9,261.2" fill="rgba(238,232,255,0.415)" stroke="rgba(222,212,248,0.706)" stroke-width="1"/>
<polygon points="637.1,281.5 600.6,247.1 632.7,235.6" fill="rgba(238,232,255,0.580)" stroke="rgba(222,212,248,0.719)" stroke-width="1"/>
<polygon points="562.7,307.6 532.9,264.9 590.9,261.2" fill="rgba(238,232,255,0.381)" stroke="rgba(222,212,248,0.667)" stroke-width="1"/>
<polygon points="532.9,264.9 562.7,307.6 545.9,314.9" fill="rgba(238,232,255,0.362)" stroke="rgba(222,212,248,0.647)" stroke-width="1"/>
<polygon points="562.7,307.6 550.4,348.3 545.9,314.9" fill="rgba(238,232,255,0.349)" stroke="rgba(222,212,248,0.632)" stroke-width="1"/>
<polygon points="562.7,307.6 619.4,337.8 566.4,366.7" fill="rgba(238,232,255,0.353)" stroke="rgba(222,212,248,0.637)" stroke-width="1"/>
<polygon points="550.4,348.3 562.7,307.6 566.4,366.7" fill="rgba(238,232,255,0.341)" stroke="rgba(222,212,248,0.623)" stroke-width="1"/>
<polygon points="510.3,292.5 532.9,264.9 545.9,314.9" fill="rgba(238,232,255,0.354)" stroke="rgba(222,212,248,0.638)" stroke-width="1"/>
<polygon points="510.3,292.5 523.2,361.9 475.0,329.0" fill="rgba(238,232,255,0.318)" stroke="rgba(222,212,248,0.598)" stroke-width="1"/>
<polygon points="523.2,361.9 510.3,292.5 545.9,314.9" fill="rgba(238,232,255,0.335)" stroke="rgba(222,212,248,0.616)" stroke-width="1"/>
<polygon points="532.9,264.9 510.3,292.5 500.4,244.9" fill="none" stroke="rgba(222,212,248,0.155)" stroke-width="1"/>
<polygon points="425.0,278.6 510.3,292.5 475.0,329.0" fill="none" stroke="rgba(222,212,248,0.243)" stroke-width="1"/>
<polygon points="510.3,292.5 425.0,278.6 500.4,244.9" fill="none" stroke="rgba(222,212,248,0.175)" stroke-width="1"/>
<polygon points="596.2,205.3 562.3,187.6 587.2,184.8" fill="none" stroke="rgba(222,212,248,0.169)" stroke-width="1"/>
<polygon points="562.3,187.6 596.2,205.3 542.7,218.6" fill="none" stroke="rgba(222,212,248,0.149)" stroke-width="1"/>
<polygon points="562.3,187.6 501.7,198.2 489.6,177.1" fill="none" stroke="rgba(222,212,248,0.126)" stroke-width="1"/>
<polygon points="696.7,531.1 664.1,486.3 751.1,493.8" fill="rgba(238,232,255,0.417)" stroke="rgba(222,212,248,0.508)" stroke-width="1"/>
<polygon points="664.1,486.3 696.7,531.1 621.6,542.5" fill="rgba(238,232,255,0.405)" stroke="rgba(222,212,248,0.495)" stroke-width="1"/>
<polygon points="618.5,395.9 570.2,421.3 566.4,366.7" fill="rgba(238,232,255,0.312)" stroke="rgba(222,212,248,0.592)" stroke-width="1"/>
<polygon points="723.3,335.1 680.0,336.9 683.0,294.4" fill="rgba(238,232,255,0.563)" stroke="rgba(222,212,248,0.670)" stroke-width="1"/>
<polygon points="716.9,394.1 680.0,336.9 723.3,335.1" fill="rgba(238,232,255,0.535)" stroke="rgba(222,212,248,0.639)" stroke-width="1"/>
<polygon points="666.6,348.4 680.0,336.9 716.9,394.1" fill="rgba(238,232,255,0.533)" stroke="rgba(222,212,248,0.637)" stroke-width="1"/>
<polygon points="658.4,303.9 666.6,348.4 619.4,337.8" fill="rgba(238,232,255,0.556)" stroke="rgba(222,212,248,0.663)" stroke-width="1"/>
<polygon points="658.4,303.9 680.0,336.9 666.6,348.4" fill="rgba(238,232,255,0.558)" stroke="rgba(222,212,248,0.664)" stroke-width="1"/>
<polygon points="680.0,336.9 658.4,303.9 683.0,294.4" fill="rgba(238,232,255,0.573)" stroke="rgba(222,212,248,0.681)" stroke-width="1"/>
<polygon points="734.8,310.2 723.3,335.1 683.0,294.4" fill="rgba(238,232,255,0.566)" stroke="rgba(222,212,248,0.674)" stroke-width="1"/>
<polygon points="734.9,282.8 734.8,310.2 683.0,294.4" fill="rgba(238,232,255,0.579)" stroke="rgba(222,212,248,0.687)" stroke-width="1"/>
<polygon points="734.8,310.2 734.9,282.8 766.1,293.0" fill="rgba(238,232,255,0.569)" stroke="rgba(222,212,248,0.676)" stroke-width="1"/>
<polygon points="801.3,340.3 734.8,310.2 766.1,293.0" fill="rgba(238,232,255,0.366)" stroke="rgba(222,212,248,0.651)" stroke-width="1"/>
<polygon points="734.8,310.2 801.3,340.3 723.3,335.1" fill="rgba(238,232,255,0.543)" stroke="rgba(222,212,248,0.647)" stroke-width="1"/>
<polygon points="681.8,282.2 705.6,235.5 735.1,257.0" fill="rgba(238,232,255,0.580)" stroke="rgba(222,212,248,0.722)" stroke-width="1"/>
<polygon points="681.8,282.2 734.9,282.8 683.0,294.4" fill="rgba(238,232,255,0.580)" stroke="rgba(222,212,248,0.700)" stroke-width="1"/>
<polygon points="734.9,282.8 681.8,282.2 735.1,257.0" fill="rgba(238,232,255,0.580)" stroke="rgba(222,212,248,0.705)" stroke-width="1"/>
<polygon points="681.8,282.2 658.4,303.9 637.1,281.5" fill="rgba(238,232,255,0.580)" stroke="rgba(222,212,248,0.700)" stroke-width="1"/>
<polygon points="681.8,282.2 637.1,281.5 632.7,235.6" fill="rgba(238,232,255,0.580)" stroke="rgba(222,212,248,0.719)" stroke-width="1"/>
<polygon points="660.0,215.0 650.0,196.0 672.0,178.0" fill="rgba(238,232,255,0.580)" stroke="rgba(222,212,248,0.781)" stroke-width="1"/>
<polygon points="695.0,192.0 660.0,215.0 672.0,178.0" fill="rgba(238,232,255,0.580)" stroke="rgba(222,212,248,0.784)" stroke-width="1"/>
<polygon points="660.0,215.0 681.8,282.2 632.7,235.6" fill="rgba(238,232,255,0.580)" stroke="rgba(222,212,248,0.740)" stroke-width="1"/>
<polygon points="681.8,282.2 660.0,215.0 705.6,235.5" fill="rgba(238,232,255,0.580)" stroke="rgba(222,212,248,0.740)" stroke-width="1"/>
<polygon points="838.5,471.8 846.7,496.1 751.1,493.8" fill="rgba(238,232,255,0.227)" stroke="rgba(222,212,248,0.497)" stroke-width="1"/>
<polygon points="846.7,496.1 859.6,522.6 752.9,578.9" fill="rgba(238,232,255,0.191)" stroke="rgba(222,212,248,0.457)" stroke-width="1"/>
<polygon points="751.1,493.8 846.7,496.1 752.9,578.9" fill="rgba(238,232,255,0.209)" stroke="rgba(222,212,248,0.476)" stroke-width="1"/>
<polygon points="846.7,496.1 875.0,499.0 859.6,522.6" fill="rgba(238,232,255,0.196)" stroke="rgba(222,212,248,0.462)" stroke-width="1"/>
<polygon points="846.7,496.1 838.5,471.8 875.0,499.0" fill="rgba(238,232,255,0.211)" stroke="rgba(222,212,248,0.479)" stroke-width="1"/>
<polygon points="875.0,499.0 859.1,434.8 930.7,442.6" fill="rgba(238,232,255,0.215)" stroke="rgba(222,212,248,0.484)" stroke-width="1"/>
<polygon points="838.5,471.8 859.1,434.8 875.0,499.0" fill="rgba(238,232,255,0.223)" stroke="rgba(222,212,248,0.492)" stroke-width="1"/>
<polygon points="859.1,434.8 909.9,408.5 930.7,442.6" fill="rgba(238,232,255,0.228)" stroke="rgba(222,212,248,0.498)" stroke-width="1"/>
<polygon points="909.9,408.5 859.1,434.8 824.0,373.9" fill="rgba(238,232,255,0.260)" stroke="rgba(222,212,248,0.534)" stroke-width="1"/>
<polygon points="480.8,571.2 385.1,592.5 471.2,504.6" fill="rgba(238,232,255,0.146)" stroke="rgba(222,212,248,0.407)" stroke-width="1"/>
<polygon points="480.8,571.2 466.8,607.9 385.1,592.5" fill="rgba(238,232,255,0.121)" stroke="rgba(222,212,248,0.379)" stroke-width="1"/>
<polygon points="466.8,607.9 480.8,571.2 567.2,593.5" fill="rgba(238,232,255,0.142)" stroke="rgba(222,212,248,0.402)" stroke-width="1"/>
<polygon points="652.7,610.0 577.9,593.9 621.6,542.5" fill="rgba(238,232,255,0.352)" stroke="rgba(222,212,248,0.436)" stroke-width="1"/>
<polygon points="769.8,605.3 883.0,569.1 886.6,582.7" fill="rgba(238,232,255,0.144)" stroke="rgba(222,212,248,0.404)" stroke-width="1"/>
<polygon points="883.0,569.1 769.8,605.3 870.7,541.5" fill="rgba(238,232,255,0.155)" stroke="rgba(222,212,248,0.417)" stroke-width="1"/>
<polygon points="-47.0,519.9 -30.4,570.8 -44.8,576.6" fill="none" stroke="rgba(222,212,248,0.207)" stroke-width="1"/>
<polygon points="-16.0,516.1 -30.4,570.8 -47.0,519.9" fill="none" stroke="rgba(222,212,248,0.163)" stroke-width="1"/>
<polygon points="-30.4,570.8 -16.0,516.1 94.0,565.0" fill="none" stroke="rgba(222,212,248,0.241)" stroke-width="1"/>
<polygon points="-30.4,570.8 94.0,565.0 106.2,608.3" fill="none" stroke="rgba(222,212,248,0.107)" stroke-width="1"/>
<polygon points="222.0,423.1 307.3,350.3 307.1,429.1" fill="none" stroke="rgba(222,212,248,0.240)" stroke-width="1"/>
<polygon points="314.7,468.5 285.8,484.7 307.1,429.1" fill="rgba(238,232,255,0.126)" stroke="rgba(222,212,248,0.385)" stroke-width="1"/>
<polygon points="442.7,474.8 314.7,468.5 381.9,401.9" fill="rgba(238,232,255,0.180)" stroke="rgba(222,212,248,0.445)" stroke-width="1"/>
<polygon points="314.7,468.5 442.7,474.8 364.1,583.9" fill="rgba(238,232,255,0.142)" stroke="rgba(222,212,248,0.402)" stroke-width="1"/>
<polygon points="285.8,484.7 314.7,468.5 364.1,583.9" fill="rgba(238,232,255,0.111)" stroke="rgba(222,212,248,0.368)" stroke-width="1"/>
<polygon points="596.2,205.3 591.0,237.5 542.7,218.6" fill="none" stroke="rgba(222,212,248,0.115)" stroke-width="1"/>
<polygon points="532.9,264.9 591.0,237.5 590.9,261.2" fill="rgba(238,232,255,0.399)" stroke="rgba(222,212,248,0.687)" stroke-width="1"/>
<polygon points="591.0,237.5 532.9,264.9 542.7,218.6" fill="none" stroke="rgba(222,212,248,0.232)" stroke-width="1"/>
<polygon points="605.0,225.0 620.0,212.0 621.9,229.7" fill="rgba(238,232,255,0.580)" stroke="rgba(222,212,248,0.736)" stroke-width="1"/>
<polygon points="596.2,205.3 620.0,212.0 605.0,225.0" fill="none" stroke="rgba(222,212,248,0.173)" stroke-width="1"/>
<polygon points="650.0,196.0 620.0,212.0 587.2,184.8" fill="none" stroke="rgba(222,212,248,0.218)" stroke-width="1"/>
<polygon points="562.7,307.6 607.3,299.7 619.4,337.8" fill="rgba(238,232,255,0.374)" stroke="rgba(222,212,248,0.660)" stroke-width="1"/>
<polygon points="607.3,299.7 562.7,307.6 590.9,261.2" fill="rgba(238,232,255,0.387)" stroke="rgba(222,212,248,0.675)" stroke-width="1"/>
<polygon points="562.3,187.6 539.4,215.0 501.7,198.2" fill="none" stroke="rgba(222,212,248,0.172)" stroke-width="1"/>
<polygon points="501.7,198.2 539.4,215.0 500.4,244.9" fill="none" stroke="rgba(222,212,248,0.125)" stroke-width="1"/>
<polygon points="782.3,439.1 838.5,471.8 751.1,493.8" fill="rgba(238,232,255,0.248)" stroke="rgba(222,212,248,0.520)" stroke-width="1"/>
<polygon points="782.3,439.1 777.2,409.5 792.7,422.5" fill="rgba(238,232,255,0.283)" stroke="rgba(222,212,248,0.559)" stroke-width="1"/>
<polygon points="716.9,394.1 782.3,439.1 751.1,493.8" fill="rgba(238,232,255,0.459)" stroke="rgba(222,212,248,0.554)" stroke-width="1"/>
<polygon points="777.2,409.5 782.3,439.1 716.9,394.1" fill="rgba(238,232,255,0.478)" stroke="rgba(222,212,248,0.575)" stroke-width="1"/>
<polygon points="801.3,340.3 736.0,373.1 723.3,335.1" fill="rgba(238,232,255,0.527)" stroke="rgba(222,212,248,0.630)" stroke-width="1"/>
<polygon points="736.0,373.1 716.9,394.1 723.3,335.1" fill="rgba(238,232,255,0.522)" stroke="rgba(222,212,248,0.624)" stroke-width="1"/>
<polygon points="738.4,560.7 751.1,493.8 752.9,578.9" fill="rgba(238,232,255,0.379)" stroke="rgba(222,212,248,0.466)" stroke-width="1"/>
<polygon points="738.4,560.7 696.7,531.1 751.1,493.8" fill="rgba(238,232,255,0.395)" stroke="rgba(222,212,248,0.483)" stroke-width="1"/>
<polygon points="652.7,610.0 670.7,565.5 703.1,610.0" fill="rgba(238,232,255,0.345)" stroke="rgba(222,212,248,0.428)" stroke-width="1"/>
<polygon points="670.7,565.5 652.7,610.0 621.6,542.5" fill="rgba(238,232,255,0.362)" stroke="rgba(222,212,248,0.447)" stroke-width="1"/>
<polygon points="696.7,531.1 670.7,565.5 621.6,542.5" fill="rgba(238,232,255,0.384)" stroke="rgba(222,212,248,0.471)" stroke-width="1"/>
<polygon points="526.2,407.9 523.2,361.9 566.4,366.7" fill="rgba(238,232,255,0.306)" stroke="rgba(222,212,248,0.585)" stroke-width="1"/>
<polygon points="570.2,421.3 526.2,407.9 566.4,366.7" fill="rgba(238,232,255,0.299)" stroke="rgba(222,212,248,0.577)" stroke-width="1"/>
<polygon points="628.4,415.8 618.5,395.9 691.7,404.6" fill="rgba(238,232,255,0.496)" stroke="rgba(222,212,248,0.596)" stroke-width="1"/>
<polygon points="700.0,215.0 660.0,215.0 695.0,192.0" fill="rgba(238,232,255,0.580)" stroke="rgba(222,212,248,0.771)" stroke-width="1"/>
<polygon points="660.0,215.0 700.0,215.0 705.6,235.5" fill="rgba(238,232,255,0.580)" stroke="rgba(222,212,248,0.758)" stroke-width="1"/>
<polygon points="700.0,215.0 695.0,192.0 715.0,205.0" fill="rgba(238,232,255,0.580)" stroke="rgba(222,212,248,0.764)" stroke-width="1"/>
<polygon points="700.0,215.0 715.0,205.0 730.0,220.0" fill="rgba(238,232,255,0.580)" stroke="rgba(222,212,248,0.750)" stroke-width="1"/>
<polygon points="705.6,235.5 700.0,215.0 730.0,220.0" fill="rgba(238,232,255,0.580)" stroke="rgba(222,212,248,0.746)" stroke-width="1"/>
<polygon points="836.7,441.3 859.1,434.8 838.5,471.8" fill="rgba(238,232,255,0.242)" stroke="rgba(222,212,248,0.513)" stroke-width="1"/>
<polygon points="782.3,439.1 836.7,441.3 838.5,471.8" fill="rgba(238,232,255,0.251)" stroke="rgba(222,212,248,0.523)" stroke-width="1"/>
<polygon points="836.7,441.3 782.3,439.1 792.7,422.5" fill="rgba(238,232,255,0.268)" stroke="rgba(222,212,248,0.543)" stroke-width="1"/>
<polygon points="798.7,411.5 836.7,441.3 792.7,422.5" fill="rgba(238,232,255,0.273)" stroke="rgba(222,212,248,0.548)" stroke-width="1"/>
<polygon points="859.1,434.8 836.7,441.3 824.0,373.9" fill="rgba(238,232,255,0.265)" stroke="rgba(222,212,248,0.539)" stroke-width="1"/>
<polygon points="836.7,441.3 798.7,411.5 824.0,373.9" fill="rgba(238,232,255,0.280)" stroke="rgba(222,212,248,0.555)" stroke-width="1"/>
<polygon points="495.3,559.2 547.3,521.4 567.2,593.5" fill="rgba(238,232,255,0.176)" stroke="rgba(222,212,248,0.440)" stroke-width="1"/>
<polygon points="480.8,571.2 495.3,559.2 567.2,593.5" fill="rgba(238,232,255,0.157)" stroke="rgba(222,212,248,0.419)" stroke-width="1"/>
<polygon points="547.3,521.4 495.3,559.2 471.2,504.6" fill="rgba(238,232,255,0.188)" stroke="rgba(222,212,248,0.453)" stroke-width="1"/>
<polygon points="495.3,559.2 480.8,571.2 471.2,504.6" fill="rgba(238,232,255,0.168)" stroke="rgba(222,212,248,0.431)" stroke-width="1"/>
<polygon points="307.3,350.3 321.0,406.1 307.1,429.1" fill="none" stroke="rgba(222,212,248,0.252)" stroke-width="1"/>
<polygon points="321.0,406.1 354.3,339.3 381.9,401.9" fill="none" stroke="rgba(222,212,248,0.203)" stroke-width="1"/>
<polygon points="321.0,406.1 307.3,350.3 354.3,339.3" fill="none" stroke="rgba(222,212,248,0.134)" stroke-width="1"/>
<polygon points="185.9,351.3 222.0,423.1 165.8,408.4" fill="none" stroke="rgba(222,212,248,0.195)" stroke-width="1"/>
<polygon points="185.9,351.3 307.3,350.3 222.0,423.1" fill="none" stroke="rgba(222,212,248,0.134)" stroke-width="1"/>
<polygon points="122.5,369.4 185.9,351.3 165.8,408.4" fill="none" stroke="rgba(222,212,248,0.164)" stroke-width="1"/>
<polygon points="185.9,351.3 122.5,369.4 167.9,214.6" fill="none" stroke="rgba(222,212,248,0.195)" stroke-width="1"/>
<polygon points="307.3,350.3 338.9,311.9 354.3,339.3" fill="none" stroke="rgba(222,212,248,0.198)" stroke-width="1"/>
<polygon points="354.3,339.3 338.9,311.9 403.0,261.5" fill="none" stroke="rgba(222,212,248,0.117)" stroke-width="1"/>
<polygon points="338.9,311.9 364.7,234.9 403.0,261.5" fill="none" stroke="rgba(222,212,248,0.131)" stroke-width="1"/>
<polygon points="620.0,212.0 640.0,208.0 621.9,229.7" fill="rgba(238,232,255,0.580)" stroke="rgba(222,212,248,0.747)" stroke-width="1"/>
<polygon points="640.0,208.0 660.0,215.0 632.7,235.6" fill="rgba(238,232,255,0.580)" stroke="rgba(222,212,248,0.755)" stroke-width="1"/>
<polygon points="660.0,215.0 640.0,208.0 650.0,196.0" fill="rgba(238,232,255,0.580)" stroke="rgba(222,212,248,0.768)" stroke-width="1"/>
<polygon points="616.1,297.6 658.4,303.9 619.4,337.8" fill="rgba(238,232,255,0.567)" stroke="rgba(222,212,248,0.674)" stroke-width="1"/>
<polygon points="658.4,303.9 616.1,297.6 637.1,281.5" fill="rgba(238,232,255,0.580)" stroke="rgba(222,212,248,0.692)" stroke-width="1"/>
<polygon points="637.1,281.5 616.1,297.6 590.9,261.2" fill="rgba(238,232,255,0.580)" stroke="rgba(222,212,248,0.695)" stroke-width="1"/>
<polygon points="755.7,389.2 777.2,409.5 716.9,394.1" fill="rgba(238,232,255,0.493)" stroke="rgba(222,212,248,0.592)" stroke-width="1"/>
<polygon points="736.0,373.1 755.7,389.2 716.9,394.1" fill="rgba(238,232,255,0.505)" stroke="rgba(222,212,248,0.606)" stroke-width="1"/>
<polygon points="771.6,383.0 736.0,373.1 801.3,340.3" fill="rgba(238,232,255,0.330)" stroke="rgba(222,212,248,0.611)" stroke-width="1"/>
<polygon points="771.6,383.0 801.3,340.3 824.0,373.9" fill="rgba(238,232,255,0.318)" stroke="rgba(222,212,248,0.598)" stroke-width="1"/>
<polygon points="798.7,411.5 771.6,383.0 824.0,373.9" fill="rgba(238,232,255,0.302)" stroke="rgba(222,212,248,0.580)" stroke-width="1"/>
<polygon points="771.6,383.0 798.7,411.5 777.2,409.5" fill="rgba(238,232,255,0.300)" stroke="rgba(222,212,248,0.578)" stroke-width="1"/>
<polygon points="738.4,560.7 692.3,551.7 696.7,531.1" fill="rgba(238,232,255,0.381)" stroke="rgba(222,212,248,0.468)" stroke-width="1"/>
<polygon points="670.7,565.5 692.3,551.7 703.1,610.0" fill="rgba(238,232,255,0.360)" stroke="rgba(222,212,248,0.445)" stroke-width="1"/>
<polygon points="523.2,361.9 505.5,395.6 469.4,375.5" fill="rgba(238,232,255,0.288)" stroke="rgba(222,212,248,0.564)" stroke-width="1"/>
<polygon points="526.2,407.9 505.5,395.6 523.2,361.9" fill="rgba(238,232,255,0.291)" stroke="rgba(222,212,248,0.567)" stroke-width="1"/>
<polygon points="469.4,375.5 505.5,395.6 474.2,423.0" fill="rgba(238,232,255,0.267)" stroke="rgba(222,212,248,0.541)" stroke-width="1"/>
<polygon points="523.4,420.5 526.2,407.9 570.2,421.3" fill="rgba(238,232,255,0.281)" stroke="rgba(222,212,248,0.557)" stroke-width="1"/>
<polygon points="523.4,420.5 581.9,503.1 547.3,521.4" fill="rgba(238,232,255,0.237)" stroke="rgba(222,212,248,0.508)" stroke-width="1"/>
<polygon points="581.9,503.1 523.4,420.5 570.2,421.3" fill="rgba(238,232,255,0.264)" stroke="rgba(222,212,248,0.538)" stroke-width="1"/>
<polygon points="523.4,420.5 547.3,521.4 471.2,504.6" fill="rgba(238,232,255,0.225)" stroke="rgba(222,212,248,0.494)" stroke-width="1"/>
<polygon points="470.4,446.3 523.4,420.5 471.2,504.6" fill="rgba(238,232,255,0.231)" stroke="rgba(222,212,248,0.502)" stroke-width="1"/>
<polygon points="523.4,420.5 470.4,446.3 474.2,423.0" fill="rgba(238,232,255,0.250)" stroke="rgba(222,212,248,0.522)" stroke-width="1"/>
<polygon points="505.5,395.6 523.4,420.5 474.2,423.0" fill="rgba(238,232,255,0.266)" stroke="rgba(222,212,248,0.540)" stroke-width="1"/>
<polygon points="581.9,503.1 606.1,535.1 547.3,521.4" fill="rgba(238,232,255,0.215)" stroke="rgba(222,212,248,0.484)" stroke-width="1"/>
<polygon points="577.9,593.9 606.1,535.1 621.6,542.5" fill="rgba(238,232,255,0.190)" stroke="rgba(222,212,248,0.456)" stroke-width="1"/>
<polygon points="606.1,535.1 664.1,486.3 621.6,542.5" fill="rgba(238,232,255,0.402)" stroke="rgba(222,212,248,0.491)" stroke-width="1"/>
<polygon points="606.1,535.1 581.9,503.1 664.1,486.3" fill="rgba(238,232,255,0.411)" stroke="rgba(222,212,248,0.501)" stroke-width="1"/>
<polygon points="547.3,521.4 606.1,535.1 567.2,593.5" fill="rgba(238,232,255,0.191)" stroke="rgba(222,212,248,0.456)" stroke-width="1"/>
<polygon points="625.7,424.8 581.9,503.1 570.2,421.3" fill="rgba(238,232,255,0.272)" stroke="rgba(222,212,248,0.547)" stroke-width="1"/>
<polygon points="625.7,424.8 570.2,421.3 618.5,395.9" fill="rgba(238,232,255,0.303)" stroke="rgba(222,212,248,0.581)" stroke-width="1"/>
<polygon points="581.9,503.1 625.7,424.8 664.1,486.3" fill="rgba(238,232,255,0.441)" stroke="rgba(222,212,248,0.535)" stroke-width="1"/>
<polygon points="664.1,486.3 625.7,424.8 691.7,404.6" fill="rgba(238,232,255,0.470)" stroke="rgba(222,212,248,0.567)" stroke-width="1"/>
<polygon points="323.0,409.5 314.7,468.5 307.1,429.1" fill="none" stroke="rgba(222,212,248,0.173)" stroke-width="1"/>
<polygon points="314.7,468.5 323.0,409.5 381.9,401.9" fill="none" stroke="rgba(222,212,248,0.183)" stroke-width="1"/>
<polygon points="271.5,287.0 185.9,351.3 167.9,214.6" fill="none" stroke="rgba(222,212,248,0.237)" stroke-width="1"/>
<polygon points="185.9,351.3 271.5,287.0 307.3,350.3" fill="none" stroke="rgba(222,212,248,0.192)" stroke-width="1"/>
<polygon points="271.5,287.0 338.9,311.9 307.3,350.3" fill="none" stroke="rgba(222,212,248,0.230)" stroke-width="1"/>
<polygon points="271.5,287.0 167.9,214.6 285.5,169.1" fill="none" stroke="rgba(222,212,248,0.159)" stroke-width="1"/>
<polygon points="352.3,207.1 271.5,287.0 285.5,169.1" fill="none" stroke="rgba(222,212,248,0.130)" stroke-width="1"/>
<polygon points="364.7,234.9 271.5,287.0 352.3,207.1" fill="none" stroke="rgba(222,212,248,0.145)" stroke-width="1"/>
<polygon points="338.9,311.9 271.5,287.0 364.7,234.9" fill="none" stroke="rgba(222,212,248,0.104)" stroke-width="1"/>
<polygon points="692.3,551.7 732.0,577.9 703.1,610.0" fill="rgba(238,232,255,0.356)" stroke="rgba(222,212,248,0.440)" stroke-width="1"/>
<polygon points="732.0,577.9 692.3,551.7 738.4,560.7" fill="rgba(238,232,255,0.368)" stroke="rgba(222,212,248,0.453)" stroke-width="1"/>
<polygon points="732.0,577.9 738.4,560.7 752.9,578.9" fill="rgba(238,232,255,0.358)" stroke="rgba(222,212,248,0.442)" stroke-width="1"/>
<polygon points="732.0,577.9 769.8,605.3 703.1,610.0" fill="rgba(238,232,255,0.339)" stroke="rgba(222,212,248,0.421)" stroke-width="1"/>
  </g>
  <g clip-path="url(#canvasClip)" fill="none" stroke="#ded4f8" stroke-width="1" stroke-linejoin="round">
    <polygon points="20,516 178,463 259,431" stroke-opacity=".24"/>
    <polygon points="20,516 178,463 259,463" stroke-opacity=".18"/>
    <polygon points="178,463 259,431 349,376" stroke-opacity=".26"/>
    <polygon points="178,463 349,376 349,463" stroke-opacity=".2"/>
    <polygon points="259,431 349,376 455,293" stroke-opacity=".24"/>
    <polygon points="259,431 455,293 455,348" stroke-opacity=".2"/>
    <polygon points="259,431 455,348 349,463" stroke-opacity=".16"/>
    <polygon points="349,376 455,348 455,445" stroke-opacity=".22"/>
    <polygon points="349,376 455,445 349,463" stroke-opacity=".18"/>
    <polygon points="349,463 455,445 455,516" stroke-opacity=".2"/>
    <polygon points="349,463 455,516 259,463" stroke-opacity=".14"/>
    <polygon points="455,293 493,259 522,236" stroke-opacity=".34"/>
    <polygon points="455,293 522,236 522,303" stroke-opacity=".28"/>
    <polygon points="455,293 522,303 455,348" fill="#eee8ff" fill-opacity=".12" stroke-opacity=".42"/>
    <polygon points="455,348 522,303 568,324" fill="#eee8ff" fill-opacity=".18" stroke-opacity=".46"/>
    <polygon points="455,348 568,324 636,445" fill="#eee8ff" fill-opacity=".16" stroke-opacity=".5"/>
    <polygon points="455,348 636,445 455,445" fill="#eee8ff" fill-opacity=".1" stroke-opacity=".34"/>
    <polygon points="455,445 636,445 610,516" fill="#eee8ff" fill-opacity=".12" stroke-opacity=".36"/>
    <polygon points="455,516 610,516 636,445" fill="#eee8ff" fill-opacity=".08" stroke-opacity=".3"/>
    <polygon points="493,259 522,236 567,247" fill="#eee8ff" fill-opacity=".25" stroke-opacity=".58"/>
    <polygon points="493,259 567,247 522,303" fill="#eee8ff" fill-opacity=".2" stroke-opacity=".52"/>
    <polygon points="522,236 588,197 567,247" fill="#eee8ff" fill-opacity=".3" stroke-opacity=".62"/>
    <polygon points="567,247 588,197 620,236" fill="#eee8ff" fill-opacity=".34" stroke-opacity=".68"/>
    <polygon points="588,197 623,198 651,193" fill="#eee8ff" fill-opacity=".42" stroke-opacity=".76"/>
    <polygon points="588,197 651,193 620,236" fill="#eee8ff" fill-opacity=".48" stroke-opacity=".8"/>
    <polygon points="623,198 651,193 676,287" fill="#eee8ff" fill-opacity=".46" stroke-opacity=".78"/>
    <polygon points="651,193 704,198 744,249" fill="#eee8ff" fill-opacity=".5" stroke-opacity=".82"/>
    <polygon points="651,193 744,249 676,287" fill="#eee8ff" fill-opacity=".54" stroke-opacity=".84"/>
    <polygon points="704,198 720,196 784,274" fill="#eee8ff" fill-opacity=".34" stroke-opacity=".68"/>
    <polygon points="704,198 784,274 744,249" fill="#eee8ff" fill-opacity=".4" stroke-opacity=".72"/>
    <polygon points="676,287 744,249 699,319" fill="#eee8ff" fill-opacity=".38" stroke-opacity=".7"/>
    <polygon points="699,319 744,249 793,404" fill="#eee8ff" fill-opacity=".3" stroke-opacity=".64"/>
    <polygon points="699,319 793,404 636,445" fill="#eee8ff" fill-opacity=".24" stroke-opacity=".56"/>
    <polygon points="744,249 784,274 827,302" fill="#eee8ff" fill-opacity=".28" stroke-opacity=".58"/>
    <polygon points="744,249 827,302 792,331" fill="#eee8ff" fill-opacity=".32" stroke-opacity=".62"/>
    <polygon points="744,249 792,331 699,319" fill="#eee8ff" fill-opacity=".25" stroke-opacity=".54"/>
    <polygon points="792,331 827,302 849,368" fill="#eee8ff" fill-opacity=".3" stroke-opacity=".62"/>
    <polygon points="792,331 849,368 793,404" fill="#eee8ff" fill-opacity=".26" stroke-opacity=".58"/>
    <polygon points="827,302 904,342 849,368" fill="#eee8ff" fill-opacity=".22" stroke-opacity=".5"/>
    <polygon points="849,368 904,342 933,432" stroke-opacity=".24"/>
    <polygon points="849,368 933,432 850,449" fill="#eee8ff" fill-opacity=".16" stroke-opacity=".4"/>
    <polygon points="793,404 850,449 636,445" fill="#eee8ff" fill-opacity=".2" stroke-opacity=".46"/>
    <polygon points="636,445 850,449 751,516" fill="#eee8ff" fill-opacity=".14" stroke-opacity=".4"/>
    <polygon points="850,449 934,516 751,516" fill="#eee8ff" fill-opacity=".12" stroke-opacity=".32"/>
  </g>
</svg>